<svg width="400" height="300" viewBox="0 0 400 300" fill="none" xmlns="http://www.w3.org/2000/svg">
  <defs>
    <linearGradient id="bg250" x1="0%" y1="0%" x2="100%" y2="100%">
      <stop offset="0%" style="stop-color:#FFD700;stop-opacity:0.1" />
      <stop offset="100%" style="stop-color:#B87333;stop-opacity:0.15" />
    </linearGradient>
    <linearGradient id="bronze250" x1="0%" y1="0%" x2="100%" y2="100%">
      <stop offset="0%" style="stop-color:#6B5B4E;stop-opacity:1" />
      <stop offset="100%" style="stop-color:#CD7F32;stop-opacity:1" />
    </linearGradient>
  </defs>

  <!-- Background -->
  <rect width="400" height="300" fill="url(#bg250)"/>

  <!-- Student at desk with tutoring -->
  <!-- Desk -->
  <rect x="100" y="140" width="200" height="10" rx="2" fill="#6B5B4E"/>
  <rect x="110" y="150" width="8" height="50" fill="#8B7355"/>
  <rect x="280" y="150" width="8" height="50" fill="#8B7355"/>

  <!-- Books on desk -->
  <rect x="120" y="125" width="40" height="15" rx="2" fill="#2E9DD8"/>
  <rect x="165" y="125" width="35" height="15" rx="2" fill="#5BB4E3"/>
  <rect x="205" y="125" width="38" height="15" rx="2" fill="#1B76A8"/>

  <!-- Student figure (simplified) -->
  <circle cx="250" cy="100" r="18" fill="#D4A574"/>
  <rect x="235" y="118" width="30" height="25" rx="3" fill="#2E9DD8"/>

  <!-- Paper on desk -->
  <rect x="245" y="125" width="45" height="15" rx="1" fill="#FFFFFF" stroke="#E0E0E0" stroke-width="1"/>
  <line x1="250" y1="129" x2="285" y2="129" stroke="#696969" stroke-width="0.5"/>
  <line x1="250" y1="133" x2="285" y2="133" stroke="#696969" stroke-width="0.5"/>
  <line x1="250" y1="137" x2="280" y2="137" stroke="#696969" stroke-width="0.5"/>

  <!-- Pencil -->
  <rect x="268" y="118" width="4" height="20" rx="2" fill="#FFD700" transform="rotate(25 270 128)"/>
  <polygon points="270,108 268,113 272,113" fill="#6B5B4E" transform="rotate(25 270 111)"/>

  <!-- Blackboard/Teaching board in background -->
  <rect x="80" y="50" width="100" height="60" rx="3" fill="#2C1810" opacity="0.8"/>
  <text x="130" y="75" font-family="sans-serif" font-size="12" font-weight="400" fill="#FFFFFF" text-anchor="middle">ABC 123</text>
  <path d="M 90 85 Q 105 82, 120 85 T 150 85" stroke="#FFFFFF" stroke-width="2" fill="none"/>

  <!-- Graduation cap symbol -->
  <g transform="translate(280, 60)">
    <polygon points="20,10 0,15 20,20 40,15" fill="url(#bronze250)"/>
    <rect x="18" y="20" width="4" height="15" fill="#6B5B4E"/>
    <polygon points="20,35 16,38 24,38" fill="#6B5B4E"/>
    <path d="M 30 18 Q 35 18, 35 23 L 35 28" stroke="#6B5B4E" stroke-width="2" fill="none"/>
  </g>

  <!-- Stars (achievement symbols) -->
  <g fill="#FFD700" opacity="0.6">
    <polygon points="330,90 332,96 338,96 333,100 335,106 330,102 325,106 327,100 322,96 328,96" />
    <polygon points="310,110 312,116 318,116 313,120 315,126 310,122 305,126 307,120 302,116 308,116" transform="scale(0.8)"/>
    <polygon points="345,115 347,121 353,121 348,125 350,131 345,127 340,131 342,125 337,121 343,121" transform="scale(0.7)"/>
  </g>

  <!-- Text -->
  <text x="200" y="230" font-family="'Poppins', sans-serif" font-size="24" font-weight="700" fill="#2C1810" text-anchor="middle">
    €250 Donation
  </text>
  <text x="200" y="258" font-family="'Inter', sans-serif" font-size="14" font-weight="600" fill="#6B5B4E" text-anchor="middle">
    3 Months of After-School Tutoring
  </text>
  <text x="200" y="276" font-family="'Inter', sans-serif" font-size="12" font-weight="400" fill="#696969" text-anchor="middle">
    Professional tutoring for 5 students in core subjects
  </text>
</svg>
